{
  "accessors": [
    {
      "bufferView": 2,
      "componentType": 5126,
      "count": 33938,
      "max": [
        4.342987060546875,
        13.465534210205078,
        1.7103790044784546
      ],
      "min": [
        -3.6215629577636719,
        9.3842067718505859,
        -1.7212649583816528
      ],
      "type": "VEC3"
    },
    {
      "bufferView": 2,
      "byteOffset": 407256,
      "componentType": 5126,
      "count": 33938,
      "max": [
        0.99977344274520874,
        0.99996525049209595,
        0.99988687038421631
      ],
      "min": [
        -0.99994516372680664,
        -0.99997842311859131,
        -0.99998581409454346
      ],
      "type": "VEC3"
    },
    {
      "bufferView": 1,
      "componentType": 5126,
      "count": 33938,
      "max": [
        0.99953299760818481,
        0.95541399717330933
      ],
      "min": [
        0.00011300000187475234,
        1.1000000085914508e-05
      ],
      "type": "VEC2"
    },
    {
      "bufferView": 0,
      "componentType": 5125,
      "count": 181116,
      "max": [
        33937
      ],
      "min": [
        0
      ],
      "type": "SCALAR"
    }
  ],
  "asset": {
    "extras": {
      "author": "Digital Atlas of Ancient Life (https://sketchfab.com/DigitalAtlasOfAncientLife)",
      "license": "CC0-1.0 (http://creativecommons.org/publicdomain/zero/1.0/)",
      "source": "https://sketchfab.com/3d-models/vertebrate-tuatara-sphenodon-63637cfd29f04170ab758136976c4253",
      "title": "Vertebrate: Tuatara (Sphenodon)"
    },
    "generator": "Sketchfab-7.80.0",
    "version": "2.0"
  },
  "bufferViews": [
    {
      "buffer": 0,
      "byteLength": 724464,
      "byteOffset": 0,
      "name": "floatBufferViews",
      "target": 34963
    },
    {
      "buffer": 0,
      "byteLength": 271504,
      "byteOffset": 724464,
      "byteStride": 8,
      "name": "floatBufferViews",
      "target": 34962
    },
    {
      "buffer": 0,
      "byteLength": 814512,
      "byteOffset": 995968,
      "byteStride": 12,
      "name": "floatBufferViews",
      "target": 34962
    }
  ],
  "buffers": [
    {
      "byteLength": 1810480,
      "uri": "scene.bin"
    }
  ],
  "extensionsUsed": [
    "KHR_materials_unlit"
  ],
  "images": [
    {
      "uri": "textures/Living_fossils_trial_baseColor.jpeg"
    }
  ],
  "materials": [
    {
      "doubleSided": true,
      "emissiveFactor": [
        0,
        0,
        0
      ],
      "extensions": {
        "KHR_materials_unlit": {}
      },
      "name": "Living_fossils_trial",
      "pbrMetallicRoughness": {
        "baseColorFactor": [
          1,
          1,
          1,
          1
        ],
        "baseColorTexture": {
          "index": 0,
          "texCoord": 0
        },
        "metallicFactor": 0,
        "roughnessFactor": 1
      }
    }
  ],
  "meshes": [
    {
      "primitives": [
        {
          "attributes": {
            "NORMAL": 1,
            "POSITION": 0,
            "TEXCOORD_0": 2
          },
          "indices": 3,
          "material": 0,
          "mode": 4
        }
      ]
    }
  ],
  "nodes": [
    {
      "children": [
        1
      ],
      "name": "RootNode (gltf orientation matrix)",
      "rotation": [
        -0.70710678118654746,
        -0,
        -0,
        0.70710678118654757
      ]
    },
    {
      "children": [
        2
      ],
      "matrix": [
        1,
        0,
        0,
        0,
        0,
        0.97406864166259766,
        -0.22625280916690826,
        0,
        0,
        0.22625280916690826,
        0.97406864166259766,
        0,
        0,
        0.29749187827110291,
        2.5847687721252441,
        1
      ],
      "name": "RootNode (model correction matrix)"
    },
    {
      "children": [
        3
      ],
      "name": "Living_fossils_trial.obj.cleaner.materialmerger.gles"
    },
    {
      "mesh": 0,
      "name": ""
    }
  ],
  "samplers": [
    {
      "magFilter": 9729,
      "minFilter": 9987,
      "wrapS": 10497,
      "wrapT": 10497
    }
  ],
  "scene": 0,
  "scenes": [
    {
      "name": "OSG_Scene",
      "nodes": [
        0
      ]
    }
  ],
  "textures": [
    {
      "sampler": 0,
      "source": 0
    }
  ]
}

